<svg viewBox="0 0 40 40" fill="none" xmlns="http://www.w3.org/2000/svg">
    <path d="M32.2448 35.7947C23.525 42.5775 10.9868 40.9815 4.20483 32.2608C-2.57719 23.5401 -0.981434 11.0005 7.7383 4.21768C7.7953 4.16068 7.85228 4.10369 7.96627 4.04669C16.743 -2.6221 29.2812 -0.855162 35.9492 7.92256C42.5603 16.7003 40.9075 29.0689 32.2448 35.7947Z" fill="url(#paint0_linear)" />
    <path d="M23.183 5.35754L8.30811 29.0118L26.9444 21.773L23.183 5.35754Z" fill="#9CEBFF" />
    <path opacity="0.7" d="M20.1626 10.1454L29.3953 32.5457L23.1832 5.35754L20.1626 10.1454Z" fill="white" />
    <path d="M19.6494 24.623L25.2346 22.457L29.395 32.6027L19.6494 24.623Z" fill="#32BEDD" />
    <defs>
        <linearGradient id="paint0_linear" x1="20.1249" y1="40.1385" x2="20.1249" y2="0.196089" gradientUnits="userSpaceOnUse">
            <stop offset="0.0" stop-color="#198AB3" />
            <stop offset="0.4417" stop-color="#28B7DB" />
            <stop offset="0.7753" stop-color="#32D4F5" />
        </linearGradient>
    </defs>
</svg>